<?xml version="1.0"?>
<svg xmlns="http://www.w3.org/2000/svg" xmlns:xlink="http://www.w3.org/1999/xlink" xmlns:svgjs="http://svgjs.com/svgjs" version="1.1" width="512" height="512" x="0" y="0" viewBox="0 0 36 36" style="enable-background:new 0 0 512 512" xml:space="preserve" class=""><g><g xmlns="http://www.w3.org/2000/svg" id="BG"><g><path d="m8.114 5.564c-1.805 6.677-6.504 10.327-7.374 13.545s-.847 10.475 13.955 14.477 19.432-4.501 20.388-8.041c4.481-16.572-23.772-31.807-26.969-19.981z" fill="#f8f8f8" data-original="#efefef" style="" class=""/></g></g><g xmlns="http://www.w3.org/2000/svg" id="Effect"><g><g><path d="m7.533 4.391h2v1h-2z" fill="#cfcfcf" transform="matrix(.603 -.798 .798 .603 -.512 8.753)" data-original="#a4afc1" style="" class=""/></g><g><path d="m4.069 8.98h2v1h-2z" fill="#cfcfcf" transform="matrix(.603 -.798 .798 .603 -5.551 7.812)" data-original="#a4afc1" style="" class=""/></g><g><path d="m3.982 4.279h1v2h-1z" fill="#cfcfcf" transform="matrix(.602 -.798 .798 .602 -2.431 5.676)" data-original="#a4afc1" style="" class=""/></g></g><g><path d="m31 30.75c-.827 0-1.5-.673-1.5-1.5s.673-1.5 1.5-1.5 1.5.673 1.5 1.5-.673 1.5-1.5 1.5zm0-2c-.276 0-.5.224-.5.5s.224.5.5.5.5-.224.5-.5-.224-.5-.5-.5z" fill="#cfcfcf" data-original="#a4afc1" style="" class=""/></g></g><g xmlns="http://www.w3.org/2000/svg" id="color_1_"><g><path d="m29.113 16.15-2.853 11.14c-.308 1.201-1.537 1.929-2.738 1.621l-15.015-3.844c-.097-.025-.191-.059-.276-.091-.985-.386-1.566-1.423-1.38-2.47.005-.061.02-.119.035-.177l2.853-11.14c.308-1.201 1.537-1.929 2.738-1.621l15.015 3.845c1.201.307 1.929 1.536 1.621 2.737z" fill="#f8f8f8" data-original="#f3f3f1" style="" class=""/></g><g><path d="m8.601 23.006c.005-.061.02-.119.035-.177l2.853-11.141c.308-1.201 1.537-1.929 2.738-1.621l13.705 3.51c-.138-.068-.285-.125-.44-.164l-15.016-3.846c-1.201-.308-2.43.42-2.738 1.621l-2.852 11.141c-.015.058-.03.116-.035.177-.185 1.047.396 2.083 1.38 2.47.085.032.179.067.276.091l1.345.344c-.903-.424-1.428-1.406-1.251-2.405z" fill="#e3e3e3" data-original="#d5dbe1" style="" class=""/></g><g><path d="m30 10.25v11.5c0 1.24-1.01 2.25-2.25 2.25h-15.5c-.1 0-.2-.01-.29-.02-1.05-.13-1.87-.99-1.95-2.05-.01-.06-.01-.12-.01-.18v-11.5c0-1.24 1.01-2.25 2.25-2.25h15.5c1.24 0 2.25 1.01 2.25 2.25z" fill="#f8f8f8" data-original="#f3f3f1" style="" class=""/></g><g><path d="m12.76 21.93c-.01-.06-.01-.12-.01-.18v-11.5c0-1.24 1.01-2.25 2.25-2.25h-2.5c-1.24 0-2.25 1.01-2.25 2.25v11.5c0 .06 0 .12.01.18.08 1.06.9 1.92 1.95 2.05.09.01.19.02.29.02h2.5c-.1 0-.2-.01-.29-.02-1.05-.13-1.87-.99-1.95-2.05z" fill="#e3e3e3" data-original="#d5dbe1" style="" class=""/></g><g><circle cx="15" cy="13" fill="#ffcc00" r="2" data-original="#2fdf84" style="" class=""/></g><g><path d="m24.74 13.801c-.68-.68-1.8-.654-2.48.026 0 0-1.85 2.2-3.819 4.553l-1.201-1.2c-.68-.68-1.8-.68-2.48 0l-4.75 4.75c.08 1.06.9 1.92 1.95 2.05.09.01.19.02.29.02h1.556 10.254 3.69c1.24 0 2.25-1.01 2.25-2.25v-1.792z" fill="#ffcc00" data-original="#2fdf84" style="" class=""/></g><g><g><path d="m12.51 22.68 4.75-4.75c.128-.128.274-.223.427-.303l-.447-.447c-.68-.68-1.8-.68-2.48 0l-4.75 4.75c.08 1.06.9 1.92 1.95 2.05.09.01.19.02.29.02h.828c-.32-.357-.53-.814-.568-1.32z" fill="#ebbc00" data-original="#00b871" style="" class=""/></g><g><path d="m18.158 19.846 1.201 1.201c1.969-2.353 5.401-6.469 5.401-6.469.119-.119.255-.211.396-.289l-.416-.487c-.68-.68-1.8-.654-2.48.026 0 0-3.014 3.619-4.698 5.63.217.085.422.213.596.388z" fill="#ebbc00" data-original="#00b871" style="" class=""/></g></g></g><g xmlns="http://www.w3.org/2000/svg" id="regular_1.5"><g><path d="m23.703 30c-.189 0-.382-.024-.573-.074l-15.464-4.141c-1.193-.329-1.904-1.563-1.592-2.755l1.7-6.519 1.451.379-1.7 6.52c-.105.402.134.817.534.927l15.455 4.139c.396.104.807-.131.911-.526l.528-2.13 1.456.36-.53 2.14c-.267 1.013-1.179 1.68-2.176 1.68z" fill="#0c0c13" data-original="#000000" style="" class=""/></g><g><path d="m27.75 24h-15.5c-1.241 0-2.25-1.009-2.25-2.25v-11.5c0-1.241 1.009-2.25 2.25-2.25h15.5c1.241 0 2.25 1.009 2.25 2.25v11.5c0 1.241-1.009 2.25-2.25 2.25zm-15.5-14.5c-.414 0-.75.336-.75.75v11.5c0 .414.336.75.75.75h15.5c.414 0 .75-.336.75-.75v-11.5c0-.414-.336-.75-.75-.75z" fill="#0c0c13" data-original="#000000" style="" class=""/></g><g><path d="m15 15c-1.103 0-2-.897-2-2s.897-2 2-2 2 .897 2 2-.897 2-2 2zm0-2.5c-.276 0-.5.224-.5.5s.224.5.5.5.5-.224.5-.5-.224-.5-.5-.5z" fill="#0c0c13" data-original="#000000" style="" class=""/></g><g><path d="m11.3 22.76-1.06-1.06 4.52-4.52c.684-.684 1.797-.684 2.48 0l1.209 1.209 3.714-4.458c.332-.398.819-.628 1.336-.631.53.036 1.006.221 1.341.615l4.978 5.808-1.139.977-4.98-5.81c-.067-.078-.116-.053-.192-.089-.043 0-.126.013-.192.091l-4.24 5.09c-.135.162-.332.26-.542.269-.22.015-.415-.069-.564-.219l-1.79-1.79c-.127-.127-.232-.127-.359 0z" fill="#0c0c13" data-original="#000000" style="" class=""/></g></g></g></svg>
